<svg width="185" height="185" viewBox="0 0 185 185" fill="none" xmlns="http://www.w3.org/2000/svg">
<g clip-path="url(#clip0_188_120)">
<path d="M95.4833 170.533C136.583 170.533 169.9 137.216 169.9 96.1167C169.9 55.0175 136.583 21.7 95.4833 21.7C54.3841 21.7 21.0667 55.0175 21.0667 96.1167C21.0667 137.216 54.3841 170.533 95.4833 170.533Z" fill="url(#paint0_linear_188_120)"/>
<path d="M50.6215 124.933L81.8913 39.0681L147.833 108.791L71.2452 143.949C58.9768 149.58 46.0022 137.618 50.6215 124.933Z" fill="#E1DCEB"/>
<path d="M82.8053 38.5583C83.2861 38.1071 83.9743 37.8613 84.8841 37.8408C85.7965 37.8201 86.9111 38.0272 88.207 38.4601C90.7983 39.3258 94.053 41.0725 97.7555 43.5664C105.157 48.5516 114.29 56.4842 123.394 66.1846C132.499 75.885 139.837 85.5023 144.344 93.2042C146.598 97.0573 148.135 100.416 148.835 103.057C149.185 104.378 149.321 105.503 149.243 106.412C149.165 107.319 148.875 107.99 148.394 108.441C147.914 108.892 147.226 109.138 146.317 109.158C145.404 109.179 144.29 108.972 142.994 108.539C140.403 107.673 137.148 105.927 133.445 103.433C126.044 98.4475 116.911 90.5151 107.807 80.8146C98.7022 71.1142 91.3639 61.4968 86.8574 53.7949C84.6029 49.9419 83.0659 46.5832 82.3659 43.9423C82.016 42.6215 81.8799 41.4961 81.9583 40.5869C82.0364 39.6804 82.3248 39.0095 82.8053 38.5583Z" fill="#011625" stroke="#011625" stroke-width="0.633333"/>
<mask id="mask0_188_120" style="mask-type:alpha" maskUnits="userSpaceOnUse" x="49" y="39" width="99" height="107">
<path d="M50.6215 124.933L81.8913 39.0681L147.833 108.791L71.2452 143.949C58.9768 149.58 46.0022 137.618 50.6215 124.933Z" fill="#E1DCEB"/>
</mask>
<g mask="url(#mask0_188_120)">
<path fill-rule="evenodd" clip-rule="evenodd" d="M80.4253 96.1637C67.2138 78.862 60.5292 58.2352 58.3732 44.3869L69.0117 42.7306C70.9524 55.1958 77.0779 74.0393 88.9824 89.6295C100.775 105.073 118.028 117.116 142.633 117.116V127.883C113.918 127.883 93.7487 113.612 80.4253 96.1637Z" fill="#011625"/>
<path fill-rule="evenodd" clip-rule="evenodd" d="M81.8433 92.8548C68.6319 75.5531 61.9473 54.9263 59.7913 41.078L70.4298 39.4217C72.3705 51.887 78.496 70.7305 90.4005 86.3206C102.193 101.764 119.446 113.807 144.051 113.807V124.574C115.336 124.574 95.1668 110.303 81.8433 92.8548Z" fill="white"/>
<path fill-rule="evenodd" clip-rule="evenodd" d="M64.8263 117.908C51.6148 100.606 44.9302 79.9793 42.7742 66.131L53.4127 64.4747C55.3534 76.94 61.4789 95.7834 73.3834 111.374C85.176 126.817 102.429 138.86 127.034 138.86V149.627C98.3188 149.627 78.1497 135.356 64.8263 117.908Z" fill="white"/>
</g>
<circle cx="111" cy="131.9" r="19" fill="#FE0000"/>
<path fill-rule="evenodd" clip-rule="evenodd" d="M118.688 126.135C119.424 126.883 119.414 128.086 118.665 128.822L109.645 137.688C108.906 138.415 107.721 138.415 106.981 137.688L103.335 134.104C102.587 133.368 102.576 132.165 103.312 131.417C104.047 130.669 105.25 130.658 105.999 131.394L108.313 133.669L116.002 126.112C116.75 125.376 117.953 125.386 118.688 126.135Z" fill="white"/>
<path d="M147.015 41.7541L146.923 41.723L146.922 41.7229C146.434 41.5335 146.193 40.9819 146.385 40.4952C147.665 37.2425 148.021 33.9843 148.566 30.6557C148.651 30.1379 149.14 29.7866 149.657 29.8718C150.175 29.9574 150.526 30.4446 150.441 30.9612C149.859 34.5138 149.47 37.845 148.154 41.1865L148.154 41.1875C147.975 41.6442 147.478 41.8844 147.015 41.7541Z" fill="#011625" stroke="#011625" stroke-width="0.633333"/>
<path d="M154.689 48.803C154.259 49.1015 153.666 48.994 153.366 48.5646C153.067 48.1371 153.173 47.547 153.604 47.2476C159.98 42.8332 166.228 36.8881 170.874 30.6604C171.186 30.2413 171.783 30.1543 172.206 30.4664C172.625 30.7771 172.713 31.3714 172.4 31.7912C167.639 38.1738 161.23 44.2725 154.69 48.8032L154.689 48.803Z" fill="#011625" stroke="#011625" stroke-width="0.633333"/>
<path d="M171.59 54.1478C166.623 55.567 161.166 56.3097 156.149 54.9258L155.664 54.785C155.162 54.6316 154.881 54.0998 155.033 53.6028L155.033 53.6019C155.176 53.1358 155.652 52.8576 156.125 52.951L156.219 52.9745L156.675 53.1076C161.403 54.4072 166.498 53.6314 171.064 52.3255C171.538 52.1912 172.031 52.4391 172.21 52.885L172.241 52.9768L172.263 53.0704C172.348 53.5387 172.064 54.0093 171.589 54.1467L171.59 54.1478Z" fill="#011625" stroke="#011625" stroke-width="0.633333"/>
<circle cx="155.967" cy="64.1333" r="3.8" fill="#1749B3"/>
<circle cx="124.3" cy="24.8667" r="3.8" fill="#1749B3"/>
<path d="M131.61 41.6251C131.282 40.2672 129.351 40.2673 129.023 41.6251L128.599 43.384C128.481 43.8692 128.103 44.2481 127.617 44.3653L125.858 44.7898C124.501 45.1176 124.501 47.0491 125.858 47.3768L127.617 47.8014C128.103 47.9186 128.481 48.2974 128.599 48.7827L129.023 50.5415C129.351 51.8994 131.282 51.8994 131.61 50.5415L132.035 48.7827C132.152 48.2974 132.531 47.9186 133.016 47.8014L134.775 47.3768C136.133 47.0491 136.133 45.1176 134.775 44.7898L133.016 44.3653C132.531 44.2481 132.152 43.8692 132.035 43.384L131.61 41.6251Z" fill="#1749B3"/>
<path fill-rule="evenodd" clip-rule="evenodd" d="M115.411 12.3967C115.795 13.3732 115.315 14.4762 114.338 14.8602C111.551 15.9563 107.979 19.487 105.594 23.8816C103.778 27.2266 102.896 30.6049 103.266 33.3696C104.382 31.7775 105.717 30.4715 107.266 29.6326C110.042 28.1287 113.21 28.2883 116.277 30.3782C118.956 32.2042 120.049 34.8025 119.76 37.3914C119.483 39.8668 117.973 42.1045 115.924 43.5102C113.845 44.937 111.085 45.595 108.237 44.723C106.623 44.2286 105.074 43.2727 103.658 41.8212C102.306 47.0832 102.355 53.6743 104.589 59.5037C104.964 60.4835 104.474 61.5823 103.494 61.9577C102.514 62.3332 101.416 61.8433 101.04 60.8635C98.0941 53.1756 98.4768 44.3953 100.879 38.0006C100.811 37.8772 100.743 37.7523 100.676 37.6256C98.1489 32.8537 99.6621 26.8441 102.254 22.0689C104.865 17.2568 109.007 12.8734 112.948 11.3238C113.924 10.9398 115.027 11.4201 115.411 12.3967ZM105.146 37.6739C106.581 39.7124 108.07 40.6976 109.35 41.0895C110.961 41.583 112.533 41.2291 113.774 40.377C115.047 39.504 115.846 38.196 115.983 36.9693C116.107 35.8562 115.719 34.5963 114.137 33.5184C112.132 32.1522 110.486 32.2103 109.076 32.9739C107.67 33.7353 106.278 35.3287 105.146 37.6739Z" fill="#E3E3E3"/>
<path fill-rule="evenodd" clip-rule="evenodd" d="M176.746 86.7063C156.83 79.304 141.589 88.5085 136.66 93.7146C135.458 94.9846 133.454 95.0395 132.184 93.8372C130.914 92.6349 130.859 90.6306 132.061 89.3605C138.32 82.7491 156.136 72.2894 178.952 80.7698C180.591 81.3791 181.426 83.202 180.817 84.8413C180.208 86.4806 178.385 87.3156 176.746 86.7063Z" fill="#CCC6D9"/>
<path fill-rule="evenodd" clip-rule="evenodd" d="M156.485 93.3609C156.929 93.1981 157.397 92.9818 157.758 92.6687C158.186 92.2968 158.36 91.8178 158.477 91.3136C158.627 90.6658 158.687 89.9758 158.87 89.327C158.937 89.086 159.067 88.9949 159.122 88.9545C159.263 88.8524 159.405 88.8251 159.539 88.8354C159.698 88.8472 159.916 88.9088 160.059 89.1821C160.079 89.2212 160.106 89.2808 160.124 89.3624C160.137 89.4222 160.145 89.6094 160.159 89.6865C160.194 89.8766 160.223 90.0666 160.25 90.2577C160.34 90.8936 160.392 91.4338 160.676 92.0181C161.063 92.8112 161.45 93.2965 161.975 93.5115C162.483 93.7194 163.09 93.6803 163.866 93.5173C163.94 93.4989 164.013 93.4832 164.085 93.4703C164.427 93.4089 164.754 93.6396 164.821 93.9897C164.888 94.3396 164.671 94.6806 164.332 94.7575C164.261 94.7735 164.191 94.7887 164.123 94.8026C163.074 95.0693 161.861 96.021 161.156 96.8543C160.938 97.1113 160.62 97.8297 160.295 98.2879C160.056 98.626 159.787 98.8488 159.56 98.9276C159.409 98.9806 159.281 98.9725 159.176 98.9457C159.023 98.9069 158.895 98.8215 158.798 98.6858C158.745 98.6116 158.695 98.5121 158.672 98.385C158.661 98.3239 158.659 98.1685 158.66 98.0982C158.593 97.8643 158.512 97.636 158.453 97.4C158.313 96.837 158.037 96.4806 157.709 96.0097C157.402 95.569 157.072 95.2921 156.589 95.0711C156.527 95.0554 156.02 94.9278 155.841 94.8546C155.579 94.7472 155.454 94.5674 155.409 94.4706C155.332 94.3063 155.324 94.1627 155.34 94.043C155.362 93.8664 155.44 93.7152 155.576 93.5931C155.661 93.5173 155.788 93.4435 155.958 93.4076C156.089 93.3795 156.436 93.3632 156.485 93.3609ZM159.459 92.4433C159.483 92.4971 159.508 92.5511 159.534 92.6057C160.1 93.7674 160.733 94.416 161.503 94.7307L161.528 94.7409C161.014 95.1336 160.548 95.5724 160.192 95.9932C160.045 96.1664 159.851 96.5262 159.641 96.8953C159.451 96.2588 159.139 95.8089 158.747 95.2459C158.448 94.8163 158.134 94.4929 157.749 94.2294C158.048 94.0716 158.333 93.8868 158.582 93.6711C158.996 93.3118 159.269 92.8955 159.459 92.4433Z" fill="#1749B3"/>
<path d="M44.8696 93.5365C45.2982 93.1509 45.9588 93.1881 46.3418 93.6192C46.7034 94.023 46.6943 94.6303 46.339 95.0222L46.2631 95.0978C43.7903 97.3222 42.389 100.072 41.9813 103.375C41.9168 103.913 41.4534 104.305 40.9231 104.292L40.816 104.284C40.2462 104.212 39.8373 103.688 39.9096 103.114C40.3805 99.3014 42.0106 96.1095 44.8696 93.5365Z" fill="#011625" stroke="#011625" stroke-width="0.633333"/>
<path d="M-5.87454 99.707C-0.710904 96.5901 5.7162 97.7268 9.57251 102.364C9.97116 101.863 10.3992 101.386 10.8534 100.937L11.0983 100.701C16.3042 95.8278 24.9159 95.9209 32.2803 100.929C33.4852 101.749 34.5323 103.061 35.4367 104.663C36.3428 106.267 37.1162 108.183 37.7661 110.234C39.0232 114.2 39.854 118.694 40.4021 122.324C40.8253 120.592 41.3405 118.892 41.9055 117.189C44.7329 108.669 47.4094 99.6557 53.2137 92.5153L53.2145 92.5142C53.5802 92.0681 54.2368 92.0002 54.6826 92.3681L54.7623 92.4393C55.1371 92.8157 55.1711 93.4223 54.8314 93.8407C49.2301 100.733 46.6715 109.457 43.8858 117.853C43.0138 120.481 42.2713 123.082 41.8118 125.799L41.8109 125.8C41.6706 126.619 41.5255 127.419 41.4292 128.23L41.4303 128.23C41.4303 128.23 41.4299 128.24 41.4325 128.263C41.4353 128.285 41.4405 128.314 41.4486 128.35C41.4569 128.387 41.4658 128.425 41.477 128.471L41.5099 128.614L41.5103 128.617C41.5569 128.869 41.5897 129.139 41.5691 129.358L41.5684 129.36C41.5277 129.76 41.3429 130.064 41.0796 130.262L41.0788 130.263C40.8854 130.407 40.6324 130.51 40.3084 130.504L40.3053 130.503C40.0754 130.497 39.7018 130.428 39.4381 130.007L39.4383 130.008C39.4063 129.958 39.3818 129.895 39.3649 129.847C39.3449 129.789 39.3236 129.718 39.3019 129.633C39.2581 129.463 39.2108 129.231 39.172 128.943L38.8497 126.33C38.4186 122.902 37.6306 117.329 36.211 112.317C35.6035 110.172 34.8949 108.137 34.0488 106.445C33.2001 104.747 32.2279 103.423 31.1111 102.663C24.4323 98.1214 16.7719 98.0369 12.3173 102.432C11.7514 102.99 11.2357 103.597 10.775 104.244C10.95 104.724 11.1116 105.341 11.2057 105.98C11.3107 106.694 11.3402 107.462 11.2098 108.109C11.0729 108.788 10.7612 109.366 10.2663 109.721C9.74745 110.094 9.04434 110.236 8.14418 109.946L8.14321 109.946C7.37379 109.697 7.00731 109.044 6.95298 108.29C6.90104 107.599 7.1384 106.778 7.27804 106.4C7.56366 105.623 7.91964 104.876 8.33329 104.167C5.08502 99.8126 -0.721202 98.7616 -5.21981 101.773L-5.22077 101.773C-5.70276 102.095 -6.34933 101.961 -6.67016 101.482L-6.67144 101.48C-6.98784 101 -6.86223 100.35 -6.38065 100.029L-5.87454 99.707ZM9.21673 107.181C9.14534 107.385 9.05024 107.71 9.0337 108.004L9.03366 108.01C9.03496 108.01 9.03658 108.012 9.03783 108.012C9.04534 108.012 9.05075 108.011 9.05453 108.011C9.06365 108.002 9.07979 107.983 9.09813 107.938C9.1223 107.878 9.14122 107.8 9.16327 107.691L9.16423 107.691C9.19603 107.534 9.21105 107.362 9.21673 107.181Z" fill="#011625" stroke="#011625" stroke-width="0.633333"/>
</g>
<defs>
<linearGradient id="paint0_linear_188_120" x1="94.9097" y1="-2.5319" x2="96.4341" y2="258.808" gradientUnits="userSpaceOnUse">
<stop stop-color="#E9E6E6"/>
<stop offset="0.276042" stop-color="#F7F7F7"/>
</linearGradient>
<clipPath id="clip0_188_120">
<rect width="185" height="185" fill="white"/>
</clipPath>
</defs>
</svg>
