<svg width="142" height="115" viewBox="0 0 142 115" fill="none" xmlns="http://www.w3.org/2000/svg">
<path d="M68.2805 114.877C100.182 114.877 126.044 89.2994 126.044 57.7483C126.044 26.1972 100.182 0.619995 68.2805 0.619995C36.3786 0.619995 10.517 26.1972 10.517 57.7483C10.517 89.2994 36.3786 114.877 68.2805 114.877Z" fill="url(#paint0_linear_5510_642)"/>
<path fill-rule="evenodd" clip-rule="evenodd" d="M118.118 94.1653C118.645 93.9798 119.199 93.7332 119.626 93.3763C120.133 92.9523 120.34 92.4063 120.478 91.8315C120.656 91.0931 120.727 90.3065 120.943 89.5669C121.023 89.2922 121.176 89.1884 121.242 89.1423C121.409 89.0259 121.577 88.9948 121.736 89.0065C121.924 89.02 122.182 89.0903 122.352 89.4017C122.376 89.4463 122.407 89.5142 122.428 89.6073C122.444 89.6755 122.454 89.8888 122.47 89.9768C122.511 90.1934 122.545 90.41 122.577 90.6279C122.684 91.3528 122.746 91.9686 123.083 92.6346C123.541 93.5388 123.999 94.092 124.621 94.337C125.223 94.574 125.942 94.5294 126.86 94.3436C126.948 94.3227 127.034 94.3047 127.12 94.2901C127.525 94.22 127.912 94.483 127.992 94.8822C128.071 95.281 127.814 95.6697 127.413 95.7573C127.329 95.7756 127.246 95.7929 127.165 95.8088C125.923 96.1128 124.486 97.1977 123.65 98.1476C123.393 98.4405 123.016 99.2594 122.631 99.7818C122.348 100.167 122.029 100.421 121.761 100.511C121.582 100.571 121.43 100.562 121.306 100.532C121.124 100.487 120.973 100.39 120.858 100.235C120.795 100.151 120.736 100.037 120.709 99.8925C120.695 99.8228 120.694 99.6457 120.694 99.5655C120.616 99.2989 120.52 99.0386 120.45 98.7697C120.283 98.1279 119.956 97.7216 119.568 97.1848C119.204 96.6824 118.814 96.3668 118.242 96.1149C118.168 96.0969 117.567 95.9515 117.355 95.868C117.045 95.7457 116.898 95.5407 116.844 95.4303C116.753 95.243 116.744 95.0793 116.762 94.9429C116.789 94.7415 116.88 94.5692 117.042 94.4301C117.143 94.3436 117.293 94.2595 117.494 94.2185C117.649 94.1865 118.061 94.168 118.118 94.1653ZM121.641 93.1193C121.669 93.1806 121.699 93.2423 121.73 93.3045C122.401 94.6287 123.15 95.3681 124.062 95.7268L124.092 95.7385C123.482 96.1861 122.931 96.6863 122.509 97.166C122.335 97.3634 122.105 97.7736 121.857 98.1943C121.631 97.4687 121.262 96.9559 120.798 96.3141C120.444 95.8243 120.072 95.4557 119.616 95.1553C119.97 94.9755 120.308 94.7649 120.602 94.5189C121.092 94.1093 121.416 93.6348 121.641 93.1193Z" fill="#1749B3"/>
<ellipse cx="2.76575" cy="46.6159" rx="2.73572" ry="2.70564" fill="#1749B3"/>
<path d="M22.8948 15.5659C22.5265 15.3306 22.034 15.4359 21.7971 15.8042L21.7561 15.8745C21.5717 16.2339 21.6894 16.6796 22.0354 16.9009C24.1255 18.2349 25.4869 20.0778 26.1799 22.4409C26.2945 22.8367 26.6913 23.0711 27.0872 22.9986L27.1663 22.98C27.5849 22.8582 27.832 22.4192 27.7073 21.9966H27.7083C26.9054 19.2593 25.3178 17.1132 22.8948 15.5659Z" fill="#011625" stroke="#011625" stroke-width="0.503333"/>
<path d="M61.5609 14.2841C57.2667 12.3341 52.418 13.8916 50.0345 17.8593C49.6833 17.5437 49.3134 17.2485 48.9281 16.9765C44.4855 13.8436 37.9971 14.8884 33.0668 19.4922C32.2707 20.2359 31.651 21.3212 31.1722 22.6006C30.6925 23.8824 30.3485 25.376 30.1117 26.9531C29.6578 29.9747 29.5747 33.3263 29.599 36.0332C29.087 34.8396 28.5139 33.6775 27.9047 32.5195C24.8013 26.6228 21.7486 20.3431 16.6049 15.8017L16.6039 15.8008C16.2754 15.5131 15.7752 15.5406 15.4838 15.8672H15.4828C15.1884 16.1957 15.2212 16.6984 15.5492 16.9883C20.5078 21.3673 23.4357 27.4427 26.4945 33.2558C27.4517 35.0745 28.3095 36.8892 28.972 38.8213H28.973C29.1241 39.2586 29.2756 39.6876 29.4125 40.1201L29.5433 40.5537C29.5437 40.5559 29.5449 40.5619 29.5453 40.5722C29.5459 40.5881 29.545 40.6086 29.5433 40.6357C29.5416 40.6637 29.5393 40.6924 29.5365 40.7275L29.5297 40.8369V40.8398C29.5252 41.0298 29.5327 41.2324 29.5746 41.3925V41.3945C29.6537 41.6876 29.8304 41.8918 30.0521 42.0078H30.0531C30.2155 42.0916 30.4171 42.1375 30.6586 42.0947H30.6615C30.8328 42.0624 31.1085 41.9662 31.2562 41.6172V41.6162C31.2737 41.5749 31.2839 41.5264 31.2904 41.4902C31.2985 41.4452 31.3058 41.3893 31.3119 41.3242C31.3241 41.1937 31.3312 41.0178 31.3256 40.8017C31.2773 39.1111 30.9328 33.4057 31.5375 28.2988C31.7314 26.659 32.0141 25.0888 32.4379 23.7529C32.863 22.413 33.4223 21.3335 34.1547 20.6494C38.5498 16.5455 44.1982 15.586 48.0082 18.2715C48.4898 18.611 48.9407 18.9909 49.3558 19.4062C49.2844 19.7783 49.239 20.2458 49.2455 20.7216C49.2528 21.2572 49.322 21.8243 49.4965 22.2851C49.6567 22.7078 49.9074 23.0587 50.2435 23.2763L50.3929 23.3613C50.825 23.5754 51.366 23.5963 52.0004 23.2763H52.0013C52.5473 23.0003 52.7438 22.4716 52.6937 21.9072C52.6495 21.3916 52.3745 20.8168 52.226 20.5556L51.9672 20.1259C51.7293 19.7521 51.4664 19.3957 51.1849 19.0556C53.0671 15.5047 57.2238 14.0584 60.8998 15.7275C61.2997 15.9085 61.771 15.734 61.9554 15.3369V15.3349C62.1373 14.9365 61.9619 14.4658 61.5609 14.2841ZM50.9086 21.4638C50.9731 21.592 51.0446 21.7576 51.0844 21.9179C51.0792 21.9115 51.0698 21.9058 51.0629 21.8945C51.0388 21.8552 51.015 21.8018 50.9857 21.7246C50.9552 21.6444 50.9304 21.5564 50.9086 21.4638Z" fill="#011625" stroke="#011625" stroke-width="0.503333"/>
<rect x="41.6213" y="30.2598" width="99.4368" height="35.4515" rx="12.08" fill="#011625"/>
<rect x="82.668" y="42.4644" width="33.531" height="4.64938" rx="2.32469" fill="#CCC6D9"/>
<rect x="50.2933" y="49.4385" width="66.0747" height="4.64938" rx="2.32469" fill="white"/>
<ellipse cx="128.34" cy="48.2761" rx="5.78121" ry="5.81173" fill="#E1DCEB"/>
<rect x="0.0300293" y="59.8996" width="99.4368" height="35.4515" rx="12.08" fill="#E1DCEB"/>
<rect x="24.8892" y="72.1042" width="33.531" height="4.64938" rx="2.32469" fill="#FE0000"/>
<rect x="24.8892" y="79.0784" width="66.0747" height="4.64938" rx="2.32469" fill="white"/>
<ellipse cx="14.483" cy="77.9159" rx="5.78121" ry="5.81173" fill="#FE0000"/>
<defs>
<linearGradient id="paint0_linear_5510_642" x1="67.8352" y1="-17.9824" x2="68.9926" y2="182.644" gradientUnits="userSpaceOnUse">
<stop stop-color="#E9E6E6"/>
<stop offset="0.276042" stop-color="#F7F7F7"/>
</linearGradient>
</defs>
</svg>
